<svg xmlns="http://www.w3.org/2000/svg" width="18" height="18" viewBox="0 0 18 18">
  <path id="instagram-alt" d="M11,8.768A2.232,2.232,0,1,0,13.232,11,2.232,2.232,0,0,0,11,8.768Zm8.937-2.2a5.877,5.877,0,0,0-.378-2.034,3.6,3.6,0,0,0-2.088-2.088,5.877,5.877,0,0,0-2.034-.378C14.276,2,13.934,2,11,2s-3.276,0-4.437.063a5.877,5.877,0,0,0-2.034.378A3.6,3.6,0,0,0,2.441,4.529a5.877,5.877,0,0,0-.378,2.034C2,7.724,2,8.066,2,11s0,3.276.063,4.437a6.174,6.174,0,0,0,.378,2.043,3.546,3.546,0,0,0,.819,1.26,3.5,3.5,0,0,0,1.269.819,5.877,5.877,0,0,0,2.034.378C7.724,20,8.066,20,11,20s3.276,0,4.437-.063a5.877,5.877,0,0,0,2.034-.378,3.5,3.5,0,0,0,1.269-.819,3.546,3.546,0,0,0,.819-1.26,5.94,5.94,0,0,0,.378-2.043C20,14.276,20,13.934,20,11s0-3.276-.063-4.437Zm-2.286,7.2a5.157,5.157,0,0,1-.351,1.62A3.474,3.474,0,0,1,15.383,17.3a5.157,5.157,0,0,1-1.629.315H8.246A5.157,5.157,0,0,1,6.617,17.3,3.35,3.35,0,0,1,4.7,15.383a4.941,4.941,0,0,1-.306-1.629c0-.711,0-.9,0-2.754V8.246A4.941,4.941,0,0,1,4.7,6.617a3.159,3.159,0,0,1,.774-1.179A3.231,3.231,0,0,1,6.617,4.7a5.157,5.157,0,0,1,1.629-.315h5.508a5.157,5.157,0,0,1,1.629.315A3.35,3.35,0,0,1,17.3,6.617a5.157,5.157,0,0,1,.315,1.629V11c0,1.854.063,2.043.036,2.754Zm-1.44-6.7A2.142,2.142,0,0,0,14.942,5.8,3.6,3.6,0,0,0,13.7,5.6H8.3a3.6,3.6,0,0,0-1.242.234A2.142,2.142,0,0,0,5.789,7.058,3.843,3.843,0,0,0,5.6,8.3v5.4a3.843,3.843,0,0,0,.234,1.242A2.142,2.142,0,0,0,7.1,16.211a3.843,3.843,0,0,0,1.2.234h5.4a3.6,3.6,0,0,0,1.242-.234,2.142,2.142,0,0,0,1.269-1.269,3.6,3.6,0,0,0,.234-1.242V8.3a3.4,3.4,0,0,0-.234-1.242ZM11,14.438A3.429,3.429,0,0,1,7.571,11h0A3.438,3.438,0,1,1,11,14.438Zm3.6-6.2a.81.81,0,0,1,0-1.611h0a.81.81,0,0,1,0,1.611Z" transform="translate(-2 -2)" fill="#c4c8cc"/>
</svg>
