<svg xmlns="http://www.w3.org/2000/svg" width="15.703" height="12.753" viewBox="0 0 15.703 12.753">
  <path id="twitter-alt" d="M14.089,4.775c.01.139.01.279.01.419a9.094,9.094,0,0,1-9.157,9.156A9.1,9.1,0,0,1,0,12.906a6.747,6.747,0,0,0,.778.039,6.447,6.447,0,0,0,4-1.374A3.223,3.223,0,0,1,1.764,9.338a4.083,4.083,0,0,0,.606.05,3.424,3.424,0,0,0,.848-.109A3.22,3.22,0,0,1,.637,6.12v-.04a3.257,3.257,0,0,0,1.455.408,3.223,3.223,0,0,1-1-4.3A9.142,9.142,0,0,0,7.732,5.552a3.57,3.57,0,0,1-.08-.738,3.222,3.222,0,0,1,5.57-2.2,6.349,6.349,0,0,0,2.042-.777,3.2,3.2,0,0,1-1.415,1.773,6.427,6.427,0,0,0,1.854-.5,6.939,6.939,0,0,1-1.614,1.665Z" transform="translate(0 -1.597)" fill="#c4c8cc"/>
</svg>
